# xmcd
# 
# Track frame offsets:
#     150
#     37018
#     66296
#     111846
#     148408
#     189633
#     216538
#     278467
#     298968
# 
# Disc length: 4462
# 
# Revision: 1
# Processed by: cddbd v1.5.2PL0 Copyright (c) Steve Scherf et al.
# Submitted via: BonkEnc v1.0.6
# 
DISCID=9e116c09
DTITLE=Dave Holland - Pass It On
DYEAR=2007
DGENRE=Contemporary Jazz
TTITLE0=The Sum Of All Parts
TTITLE1=Fast Track
TTITLE2=Lazy Snake
TTITLE3=Double Vision
TTITLE4=Equality
TTITLE5=Modern Times
TTITLE6=Rivers Run
TTITLE7=Processional
TTITLE8=Pass It On
EXTD=YEAR: 2008
EXTT0=
EXTT1=
EXTT2=
EXTT3=
EXTT4=
EXTT5=
EXTT6=
EXTT7=
EXTT8=
PLAYORDER=
